<svg width="980" height="144" viewBox="0 0 980 144" fill="none" xmlns="http://www.w3.org/2000/svg">
<path fill-rule="evenodd" clip-rule="evenodd" d="M571.461 91.5466L565.073 113.692H445.674L470.802 26.3789H517.371L498.631 91.5466H571.461Z" fill="#004B93"/>
<path fill-rule="evenodd" clip-rule="evenodd" d="M229.167 64.9999H195.522L201.91 42.9948H235.274C241.377 42.9948 247.058 47.9625 245.209 54.0677C243.65 59.7426 238.966 64.2884 229.167 64.9999ZM250.181 26.3813H160.028L135.045 113.693H181.605L190.693 81.6094H235.274C260.685 81.6094 283.83 70.3938 288.231 55.0584C291.919 42.5711 280.844 26.3813 250.181 26.3813Z" fill="#004B93"/>
<path fill-rule="evenodd" clip-rule="evenodd" d="M384.482 64.9999H350.837L357.228 42.9948H390.73C396.835 42.9948 402.372 47.9625 400.667 54.0677C398.965 59.7426 394.279 64.2884 384.482 64.9999ZM405.492 26.3813H315.346L290.358 113.693H336.923L346.153 81.6094H390.73C416.003 81.6094 439.282 70.3938 443.683 55.0584C447.236 42.5711 436.161 26.3813 405.492 26.3813Z" fill="#004B93"/>
<path fill-rule="evenodd" clip-rule="evenodd" d="M111.334 113.693L118.289 89.5601H13.5145L6.55933 113.693H111.334Z" fill="#004B93"/>
<path fill-rule="evenodd" clip-rule="evenodd" d="M128.086 55.4846L132.487 40.2961H27.5692L23.3131 55.4846H128.086Z" fill="#004B93"/>
<path fill-rule="evenodd" clip-rule="evenodd" d="M120.275 82.462L126.099 62.4443H21.3245L15.5026 82.462H120.275Z" fill="#004B93"/>
<path fill-rule="evenodd" clip-rule="evenodd" d="M134.473 33.3399L136.461 26.3805H31.6882L29.7007 33.3399H134.473Z" fill="#004B93"/>
<path d="M601.268 61.7445H601.275V63.4252H601.268M588.485 56.5084C591.74 59.742 596.249 61.7445 601.268 61.7445V63.4252C595.792 63.4231 590.862 61.2374 587.303 57.6948L588.485 56.5084ZM583.232 43.8464C583.232 48.797 585.232 53.2726 588.485 56.5084L587.303 57.6948C583.741 54.1544 581.551 49.2571 581.551 43.8464H583.232ZM583.232 43.8464H581.551L581.551 43.8443H583.232V43.8464ZM583.232 43.8421H581.551V43.8378H583.232V43.8421ZM588.487 31.0608C585.234 34.3115 583.232 38.8212 583.232 43.84H581.551C581.551 38.3569 583.741 33.4296 587.298 29.8701L588.487 31.0608ZM601.273 25.8034C596.254 25.8055 591.74 27.8037 588.487 31.0608L587.298 29.8701C590.858 26.3105 595.789 24.1248 601.273 24.1227V25.8034ZM601.275 25.8034H601.273V24.1227H601.275V25.8034ZM601.281 25.8034H601.273V24.1227H601.281V25.8034ZM614.009 31.0586C610.739 27.8037 606.23 25.8055 601.281 25.8034V24.1227C606.688 24.1248 611.615 26.3104 615.191 29.8679L614.009 31.0586ZM619.315 43.8421C619.313 38.8212 617.279 34.3115 614.009 31.0586L615.191 29.8679C618.77 33.4296 620.996 38.3588 620.996 43.842L619.315 43.8421ZM619.315 43.8421L620.996 43.842L620.996 43.8442H619.315V43.8421ZM619.315 43.8421L620.996 43.842L620.996 43.8464H619.315V43.8421ZM614.011 56.5041C617.279 53.2704 619.313 48.7969 619.315 43.8484H620.996C620.994 49.2592 618.77 54.1544 615.193 57.6927L614.011 56.5041ZM601.277 61.7444C606.23 61.7444 610.741 59.742 614.011 56.5041L615.193 57.6927C611.617 61.2374 606.686 63.4231 601.277 63.4252V61.7444ZM601.275 61.7445L601.277 61.7444V63.423H601.275L601.275 61.7445Z" fill="#004B93"/>
<path fill-rule="evenodd" clip-rule="evenodd" d="M595.879 42.1409H603.262C605.673 42.1409 608.227 41.5743 609.365 38.3065C610.498 34.9003 607.804 34.6191 606.238 34.6191H598.292L595.879 42.1409ZM591.904 54.068H588.781L595.879 32.0629H606.813C610.786 32.0629 614.335 33.341 612.773 38.0253C611.779 41.2888 609.51 42.4221 607.804 43.2784C608.939 43.845 610.074 44.4138 609.224 47.3961L608.227 51.3689C607.804 52.647 607.804 53.071 608.656 53.6418L608.513 54.0679H604.54C604.54 52.6471 605.529 49.3814 605.814 48.5272C606.383 46.8273 606.668 44.6971 602.838 44.6971H595.027L591.904 54.068Z" fill="#004B93"/>
<path d="M973.921 56.2872H713.542V113.692H973.921V56.2872Z" fill="#FFCC00"/>
<path fill-rule="evenodd" clip-rule="evenodd" d="M759.302 64.4613L751.004 75.8325H796.395C798.63 75.8325 798.63 76.6741 797.508 78.1561C796.395 79.7448 794.434 82.4466 793.312 83.9408C792.662 84.7763 791.635 86.1729 795.184 86.1729H813.727C813.727 86.1729 816.707 82.1721 819.226 78.7202C822.583 74.1553 819.506 64.4612 807.29 64.4612L759.302 64.4613Z" fill="#D40511"/>
<path fill-rule="evenodd" clip-rule="evenodd" d="M747.655 101.268L764.335 78.6237H785.114C787.352 78.6237 787.352 79.4684 786.233 80.9534C785.114 82.5391 783.159 85.1494 782.037 86.7351C781.39 87.5737 780.362 88.9703 783.906 88.9703H811.671C809.341 92.1386 801.888 101.269 788.379 101.269L747.655 101.268Z" fill="#D40511"/>
<path fill-rule="evenodd" clip-rule="evenodd" d="M843.359 88.9666L834.318 101.268H810.368L819.409 88.9666H843.359Z" fill="#D40511"/>
<path fill-rule="evenodd" clip-rule="evenodd" d="M895.917 64.4613H872.058L862.837 76.9486H852.213L861.346 64.4613H837.487L821.46 86.173H879.981L895.917 64.4613Z" fill="#D40511"/>
<path fill-rule="evenodd" clip-rule="evenodd" d="M713.546 93.8175H748.769L746.812 96.4248H713.546" fill="#D40511"/>
<path fill-rule="evenodd" clip-rule="evenodd" d="M713.546 88.9666H752.316L750.352 91.5799H713.546" fill="#D40511"/>
<path fill-rule="evenodd" clip-rule="evenodd" d="M713.546 98.7551H745.134L743.274 101.271H713.546" fill="#D40511"/>
<path fill-rule="evenodd" clip-rule="evenodd" d="M877.933 88.9666L868.8 101.268H844.942L853.983 88.9666H877.933Z" fill="#D40511"/>
<path fill-rule="evenodd" clip-rule="evenodd" d="M973.921 96.4263H938.88L940.743 93.8221H973.921" fill="#D40511"/>
<path fill-rule="evenodd" clip-rule="evenodd" d="M973.921 101.269H935.242L937.206 98.7557H973.921" fill="#D40511"/>
<path fill-rule="evenodd" clip-rule="evenodd" d="M944.38 88.9666H973.919V91.5799H942.419L944.38 88.9666Z" fill="#D40511"/>
<path fill-rule="evenodd" clip-rule="evenodd" d="M929.002 64.4613L913.066 86.173H887.722L903.744 64.4613H929.002Z" fill="#D40511"/>
<path fill-rule="evenodd" clip-rule="evenodd" d="M939.999 88.9666L930.867 101.268H892.563C882.781 101.268 880.076 96.6145 883.058 92.51C883.897 91.397 885.668 88.9666 885.668 88.9666H939.999Z" fill="#D40511"/>
<path d="M713.883 40.4227L719.65 23.1196H723.294L729.062 40.4227H726.623L725.129 35.9397H717.736L716.242 40.4227H713.883ZM721.249 25.2693L718.391 33.9472H724.474L721.617 25.2693H721.249Z" fill="black"/>
<path d="M740.571 40.7373C739.435 40.7373 738.438 40.4707 737.582 39.9376C736.726 39.4048 736.061 38.6622 735.589 37.7094C735.118 36.7569 734.882 35.6427 734.882 34.3665V33.3704C734.882 32.0946 735.118 30.9804 735.589 30.0275C736.061 29.0754 736.726 28.3324 737.582 27.7993C738.438 27.2662 739.435 26.9996 740.571 26.9996C742.336 26.9996 743.822 27.6466 745.028 28.9398L743.795 30.3818C742.939 29.473 741.917 29.0184 740.728 29.0184C739.61 29.0184 738.732 29.4163 738.094 30.2112C737.455 31.0069 737.137 32.0859 737.137 33.449V34.288C737.137 35.6514 737.455 36.7308 738.094 37.5258C738.732 38.3215 739.61 38.7186 740.728 38.7186C742.004 38.7186 743.07 38.2644 743.927 37.3556L745.159 38.7972C743.97 40.0911 742.441 40.7373 740.571 40.7373Z" fill="black"/>
<path d="M752.316 40.7373C751.093 40.7373 750.044 40.4707 749.17 39.9376C748.296 39.4048 747.628 38.6622 747.164 37.7094C746.701 36.7569 746.47 35.6427 746.47 34.3665V33.3704C746.47 32.0946 746.701 30.9804 747.164 30.0275C747.628 29.0754 748.296 28.3324 749.17 27.7993C750.044 27.2662 751.093 26.9996 752.316 26.9996C753.54 26.9996 754.588 27.2662 755.463 27.7993C756.336 28.3324 757.005 29.0754 757.468 30.0275C757.93 30.9803 758.162 32.0946 758.162 33.3704V34.3665C758.162 35.6426 757.93 36.7569 757.468 37.7094C757.005 38.6622 756.336 39.4048 755.463 39.9376C754.588 40.4707 753.54 40.7373 752.316 40.7373ZM752.316 38.7447C753.435 38.7447 754.317 38.3559 754.964 37.578C755.61 36.8005 755.934 35.7036 755.934 34.2879V33.4489C755.934 32.0331 755.61 30.9367 754.964 30.1588C754.317 29.3813 753.435 28.9921 752.316 28.9921C751.197 28.9921 750.314 29.3812 749.669 30.1588C749.021 30.9367 748.698 32.0332 748.698 33.4489V34.2879C748.698 35.7037 749.021 36.8005 749.669 37.578C750.314 38.3559 751.198 38.7447 752.316 38.7447Z" fill="black"/>
<path d="M760.889 40.4227V27.3142H762.96V29.8312C763.344 29.0446 763.886 28.3852 764.586 27.8517C765.285 27.3189 766.167 27.052 767.233 27.052C768.177 27.052 768.985 27.2928 769.659 27.7732C770.331 28.254 770.807 28.966 771.087 29.9098C771.489 29.1232 772.039 28.4508 772.739 27.8911C773.438 27.3321 774.347 27.0521 775.465 27.0521C776.758 27.0521 777.785 27.4809 778.546 28.3369C779.306 29.1933 779.687 30.4695 779.687 32.1645V40.4227H777.458V32.4528C777.458 31.3167 777.226 30.4646 776.763 29.8966C776.3 29.3289 775.632 29.0445 774.758 29.0445C773.936 29.0445 773.245 29.2718 772.687 29.726C772.127 30.181 771.699 30.6963 771.402 31.2731V40.4227H769.174V32.4528C769.174 31.3167 768.942 30.4646 768.479 29.8966C768.016 29.3289 767.347 29.0445 766.473 29.0445C765.651 29.0445 764.961 29.2718 764.402 29.726C763.842 30.181 763.415 30.6963 763.117 31.2731V40.4227H760.889Z" fill="black"/>
<path d="M783.016 45.4039V27.3142H785.086V29.8312C785.541 28.9398 786.14 28.254 786.882 27.7732C787.625 27.2928 788.469 27.052 789.412 27.052C790.408 27.052 791.282 27.3142 792.034 27.8386C792.785 28.363 793.367 29.0969 793.777 30.041C794.188 30.9847 794.393 32.0947 794.393 33.3704V34.3665C794.393 35.6426 794.188 36.7522 793.777 37.6963C793.367 38.64 792.785 39.3739 792.034 39.8983C791.282 40.4227 790.408 40.6849 789.412 40.6849C788.521 40.6849 787.716 40.4707 787 40.0427C786.283 39.6147 785.698 38.9986 785.244 38.1942V45.404L783.016 45.4039ZM788.678 29.0445C787.962 29.0445 787.302 29.2412 786.699 29.6344C786.096 30.0276 785.611 30.5741 785.244 31.2731V36.4638C785.611 37.1631 786.096 37.7094 786.699 38.1025C787.302 38.4956 787.962 38.6924 788.678 38.6924C789.762 38.6924 790.614 38.3036 791.235 37.5257C791.854 36.7482 792.165 35.6688 792.165 34.2879V33.4489C792.165 32.0684 791.854 30.989 791.235 30.2111C790.613 29.4336 789.762 29.0445 788.678 29.0445Z" fill="black"/>
<path d="M799.794 40.685C798.623 40.685 797.67 40.3311 796.936 39.6231C796.203 38.9154 795.835 37.9935 795.835 36.8574C795.835 35.5816 796.299 34.5725 797.225 33.8291C798.151 33.0865 799.409 32.7152 801 32.7152H803.963V32.2955C803.963 30.076 802.931 28.9661 800.869 28.9661C800.275 28.9661 799.689 29.0756 799.113 29.2938C798.536 29.5124 798.038 29.8226 797.618 30.2244L796.464 28.7301C797.67 27.5765 799.191 26.9998 801.026 26.9998C804.4 26.9998 806.086 28.7654 806.086 32.2956V37.3819C806.086 38.3085 806.453 38.7711 807.188 38.7711C807.257 38.7711 807.332 38.7671 807.41 38.758C807.489 38.7496 807.589 38.7365 807.712 38.7187V40.6065C807.414 40.6589 807.057 40.6851 806.637 40.6851C805.064 40.6851 804.207 39.8814 804.067 38.2732C803.596 39.0424 802.993 39.6362 802.258 40.0559C801.525 40.4752 800.703 40.685 799.794 40.685ZM800.449 38.771C801.953 38.771 803.124 38.0371 803.963 36.569V34.4455H801.21C800.231 34.4455 799.462 34.651 798.903 35.0616C798.343 35.4722 798.064 36.0359 798.064 36.7523C798.064 37.3644 798.277 37.8535 798.706 38.2204C799.134 38.5877 799.716 38.771 800.449 38.771Z" fill="black"/>
<path d="M809.678 40.4227V27.3142H811.749V29.8312C812.151 29.0624 812.701 28.4067 813.4 27.8648C814.099 27.3233 814.99 27.052 816.074 27.052C817.385 27.052 818.429 27.4808 819.208 28.3368C819.985 29.1932 820.374 30.4694 820.374 32.1644V40.4226H818.146V32.4527C818.146 31.3166 817.9 30.4645 817.412 29.8965C816.922 29.3288 816.232 29.0444 815.34 29.0444C814.502 29.0444 813.798 29.2717 813.23 29.7259C812.661 30.1809 812.221 30.6962 811.906 31.273V40.4226L809.678 40.4227Z" fill="black"/>
<path d="M825.408 45.4039L827.191 40.4227H826.221L821.764 27.3142H824.176L827.768 38.4302H828.082L831.7 27.3142H834.034L827.689 45.4039H825.408Z" fill="black"/>
<path d="M845.673 40.7373C844.45 40.7373 843.401 40.4707 842.528 39.9376C841.653 39.4048 840.985 38.6622 840.521 37.7094C840.058 36.7569 839.827 35.6427 839.827 34.3665V33.3704C839.827 32.0946 840.058 30.9804 840.521 30.0275C840.985 29.0754 841.653 28.3324 842.528 27.7993C843.401 27.2662 844.45 26.9996 845.673 26.9996C846.897 26.9996 847.946 27.2662 848.82 27.7993C849.693 28.3324 850.362 29.0754 850.825 30.0275C851.288 30.9803 851.52 32.0946 851.52 33.3704V34.3665C851.52 35.6426 851.288 36.7569 850.825 37.7094C850.362 38.6622 849.693 39.4048 848.82 39.9376C847.946 40.4707 846.897 40.7373 845.673 40.7373ZM845.673 38.7447C846.792 38.7447 847.674 38.3559 848.322 37.578C848.967 36.8005 849.291 35.7036 849.291 34.2879V33.4489C849.291 32.0331 848.967 30.9367 848.322 30.1588C847.674 29.3813 846.792 28.9921 845.673 28.9921C844.555 28.9921 843.672 29.3812 843.026 30.1588C842.379 30.9367 842.055 32.0332 842.055 33.4489V34.2879C842.055 35.7037 842.378 36.8005 843.026 37.578C843.672 38.3559 844.555 38.7447 845.673 38.7447Z" fill="black"/>
<path d="M854.927 40.4227V29.202H852.699V27.3142H854.927V26.5541C854.927 24.8936 855.308 23.6793 856.068 22.9098C856.828 22.141 857.907 21.7562 859.306 21.7562C859.55 21.7562 859.773 21.7653 859.974 21.7824C860.175 21.8002 860.354 21.8264 860.512 21.8613V23.7749C860.127 23.7225 859.812 23.6963 859.568 23.6963C858.658 23.6963 858.029 23.9323 857.68 24.404C857.33 24.876 857.156 25.619 857.156 26.6326V27.3141H860.538V29.2019H857.156V40.4226L854.927 40.4227Z" fill="black"/>
<path d="M659.976 6.34131H657.807V139.241H659.976V6.34131Z" fill="#004B93"/>
</svg>
